<svg xmlns="http://www.w3.org/2000/svg" viewBox="0 0 128 128" shape-rendering="crispEdges">
  <rect width="128" height="128" fill="#050506"/>

  <rect x="76" y="16" width="30" height="8" fill="#F3E8D6"/>
  <rect x="70" y="24" width="42" height="22" fill="#F3E8D6"/>
  <rect x="76" y="46" width="30" height="8" fill="#F3E8D6"/>
  <rect x="86" y="54" width="8" height="8" fill="#F3E8D6"/>

  <rect x="78" y="30" width="4" height="4" fill="#050506"/>
  <rect x="74" y="34" width="4" height="4" fill="#050506"/>
  <rect x="78" y="38" width="4" height="4" fill="#050506"/>
  <rect x="88" y="26" width="4" height="4" fill="#050506"/>
  <rect x="86" y="30" width="4" height="4" fill="#050506"/>
  <rect x="84" y="34" width="4" height="4" fill="#050506"/>
  <rect x="82" y="38" width="4" height="4" fill="#050506"/>
  <rect x="98" y="30" width="4" height="4" fill="#050506"/>
  <rect x="102" y="34" width="4" height="4" fill="#050506"/>
  <rect x="98" y="38" width="4" height="4" fill="#050506"/>

  <rect x="34" y="34" width="56" height="8" fill="#D87555"/>
  <rect x="30" y="42" width="64" height="28" fill="#D87555"/>
  <rect x="22" y="50" width="12" height="14" fill="#D87555"/>
  <rect x="90" y="50" width="12" height="14" fill="#D87555"/>
  <rect x="34" y="70" width="56" height="6" fill="#D87555"/>
  <rect x="56" y="76" width="12" height="8" fill="#D87555"/>

  <rect x="46" y="50" width="6" height="12" fill="#050506"/>
  <rect x="72" y="50" width="6" height="12" fill="#050506"/>

  <rect x="24" y="76" width="10" height="14" fill="#D87555"/>
  <rect x="90" y="76" width="10" height="14" fill="#D87555"/>

  <rect x="34" y="72" width="24" height="4" fill="#050506"/>
  <rect x="66" y="72" width="24" height="4" fill="#050506"/>
  <rect x="32" y="76" width="4" height="30" fill="#050506"/>
  <rect x="88" y="76" width="4" height="30" fill="#050506"/>
  <rect x="36" y="106" width="22" height="4" fill="#050506"/>
  <rect x="66" y="106" width="22" height="4" fill="#050506"/>

  <rect x="36" y="76" width="24" height="30" fill="#F3E8D6"/>
  <rect x="64" y="76" width="24" height="30" fill="#F3E8D6"/>

  <rect x="60" y="76" width="4" height="34" fill="#050506"/>
  <rect x="64" y="76" width="2" height="34" fill="#9A8E7E"/>
  <rect x="60" y="80" width="6" height="4" fill="#050506"/>
  <rect x="60" y="88" width="6" height="4" fill="#050506"/>
  <rect x="60" y="96" width="6" height="4" fill="#050506"/>

  <rect x="42" y="84" width="4" height="4" fill="#D87555"/>
  <rect x="38" y="88" width="4" height="4" fill="#D87555"/>
  <rect x="42" y="92" width="4" height="4" fill="#D87555"/>
  <rect x="50" y="80" width="4" height="4" fill="#D87555"/>
  <rect x="48" y="84" width="4" height="4" fill="#D87555"/>
  <rect x="46" y="88" width="4" height="4" fill="#D87555"/>
  <rect x="44" y="92" width="4" height="4" fill="#D87555"/>
  <rect x="54" y="84" width="4" height="4" fill="#D87555"/>
  <rect x="58" y="88" width="4" height="4" fill="#D87555"/>
  <rect x="54" y="92" width="4" height="4" fill="#D87555"/>

  <rect x="72" y="82" width="4" height="4" fill="#8F8578"/>
  <rect x="68" y="86" width="4" height="4" fill="#8F8578"/>
  <rect x="68" y="90" width="4" height="4" fill="#8F8578"/>
  <rect x="72" y="94" width="4" height="4" fill="#8F8578"/>
  <rect x="82" y="82" width="4" height="4" fill="#8F8578"/>
  <rect x="86" y="86" width="4" height="4" fill="#8F8578"/>
  <rect x="86" y="90" width="4" height="4" fill="#8F8578"/>
  <rect x="82" y="94" width="4" height="4" fill="#8F8578"/>

  <rect x="40" y="100" width="14" height="3" fill="#8F8578"/>
  <rect x="70" y="100" width="14" height="3" fill="#8F8578"/>

  <rect x="42" y="110" width="14" height="12" fill="#D87555"/>
  <rect x="70" y="110" width="14" height="12" fill="#D87555"/>
  <rect x="50" y="116" width="6" height="6" fill="#050506"/>
  <rect x="70" y="116" width="6" height="6" fill="#050506"/>
</svg>
